<svg xmlns="http://www.w3.org/2000/svg" xmlns:xlink="http://www.w3.org/1999/xlink" width="1097" height="1077" viewBox="0 0 1097 1077">
  <defs>
    <clipPath id="clip-path">
      <rect id="Rectangle_28" data-name="Rectangle 28" width="281" height="400" transform="translate(0.425 -0.001)" fill="#434860"/>
    </clipPath>
    <clipPath id="clip-Falccon_7_-_Final_2">
      <rect width="1097" height="1077"/>
    </clipPath>
  </defs>
  <g id="Falccon_7_-_Final_2" data-name="Falccon 7 - Final – 2" clip-path="url(#clip-Falccon_7_-_Final_2)">
    <g id="Group_328" data-name="Group 328">
      <path id="Path_493" data-name="Path 493" d="M288.538,682.466h0Z" transform="translate(211.072 18.97)" fill="#011223"/>
      <path id="Path_485" data-name="Path 485" d="M397.544,186.12s-2.92-8.284-10.667-7.985-25.208,2.5-34.326,2.205-18.3-2.205-20.2-.239,8.284,2.5,14.661,2.022,24.731-1.2,33.134,0A129.943,129.943,0,0,1,397.544,186.12Z" transform="translate(19.68 309.611)" fill="#ffc936"/>
      <path id="Path_487" data-name="Path 487" d="M333.166,117.867a.528.528,0,1,1-.526-.478A.5.5,0,0,1,333.166,117.867Z" transform="translate(19.68 344.613)" fill="#fffeff"/>
      <path id="Path_488" data-name="Path 488" d="M465.854,123.855s2.724,3.577-2.758,6.616-10.548.418-6.079-2.2A78.829,78.829,0,0,1,465.854,123.855Z" transform="translate(-51.311 340.887)" fill="#ffc936"/>
      <path id="Path_489" data-name="Path 489" d="M464.948,122.885s-2.063-2.347-7.494,1.475c-4.871,3.441-4.871,6.615-.536,6.034S466.393,124.83,464.948,122.885Z" transform="translate(-50.405 341.856)" fill="#ffc936"/>
      <path id="Path_491" data-name="Path 491" d="M449.943,249.579c-2.3,3.871-3.931,11.414.969,25.574,8.582,24.791,12.989,29.834,11.92,42.073,0,0-.239-4.221-10.847-9.857,0,0,7.575,16.413,3.371,34.769,0,0-1.641-9.775-9.508-16.211,0,0,3.078,17.856.522,35.6a39.659,39.659,0,0,0,2.872-20.231c4.778,7.867,3.178,20.2,3.178,20.2,12.783-16.893,6.794-35.4,6.794-35.4,5.81,6.257,6.973,15.732,6.973,15.732,23.6-35.934-9.118-62.573-15.375-79.558C448.857,256.976,448.924,252.806,449.943,249.579Z" transform="translate(-45.862 268.434)" fill="#434860"/>
      <g id="Group_319" data-name="Group 319" transform="translate(182.253 385.525)">
        <g id="Group_317" data-name="Group 317" transform="translate(113.279 189.755) rotate(-38)">
          <path id="Rectangle_18" data-name="Rectangle 18" d="M0,0H253.849a0,0,0,0,1,0,0V11a0,0,0,0,1,0,0H11A11,11,0,0,1,0,0V0A0,0,0,0,1,0,0Z" transform="translate(0 10.154)" fill="#434860"/>
          <path id="Polygon_2" data-name="Polygon 2" d="M15.069,0,30.138,26.231H0Z" transform="translate(280.08 0) rotate(90)" fill="#434860"/>
        </g>
        <path id="Rectangle_17" data-name="Rectangle 17" d="M0,0H273.1a12.37,12.37,0,0,1,12.37,12.37v0a0,0,0,0,1,0,0H8.779A8.779,8.779,0,0,1,0,3.591V0A0,0,0,0,1,0,0Z" transform="matrix(0.819, -0.574, 0.574, 0.819, 43.793, 234.723)" fill="#434860"/>
        <path id="Path_630" data-name="Path 630" d="M164.144,0A164.144,164.144,0,1,1,0,164.144,164.144,164.144,0,0,1,164.144,0Z" transform="translate(0 0)" fill="#ffc936"/>
        <path id="Path_481" data-name="Path 481" d="M229.714,126.626a67.143,67.143,0,0,1,13.99-5.632c6.883-1.7,8.581-5.051,8.581-5.051s-.58,8.179,3.71,12.47,13.051,6.257,23.421.715c0,0-8.85,7.777-19.577,5.363s-12.425-11.442-12.425-11.442A36.2,36.2,0,0,0,229.714,126.626Z" transform="translate(-103.562 -40.08)" fill="#ffc936"/>
        <path id="Path_484" data-name="Path 484" d="M309.381,176.879s-1.609,6.674,5.483,8.224,31.645-5.96,40.643.6c0,0-7.747-4.112-23.778,1.252s-24.017,3.874-26.281,1.55S303.958,180.156,309.381,176.879Z" transform="translate(-146.519 -75.196)" fill="#ffc936"/>
        <path id="Path_486" data-name="Path 486" d="M329.246,126.541c-.949.132-2.827,3.526-7.065,5.479a13.655,13.655,0,0,1-7.99,1.16c3.638,1.86,9,.833,11.693-.744A6.921,6.921,0,0,0,329.246,126.541Z" transform="translate(-152.244 -46.186)" fill="#ffc936"/>
      </g>
      <g id="Group_24" data-name="Group 24" transform="translate(533.377 487.209)">
        <text id="FALCON" transform="translate(0 103)" fill="#fff" font-size="114" font-family="Aladin-Regular, Aladin" letter-spacing="0.02em"><tspan x="0" y="0">FALCON</tspan></text>
      </g>
      <g id="Group_29" data-name="Group 29" transform="translate(750.606 597.822)">
        <text id="SOCIETY" transform="translate(0 42)" fill="#fff" font-size="37" font-family="MuktaMalar-Medium, Mukta Malar" font-weight="500" letter-spacing="0.02em"><tspan x="0" y="0">SOCIETY</tspan></text>
      </g>
      <line id="Line_1" data-name="Line 1" x2="180.797" transform="translate(546.412 630.868)" fill="none" stroke="#ffc936" stroke-width="2"/>
      <g id="Group_327" data-name="Group 327">
        <g id="Group_324" data-name="Group 324" transform="translate(196.575 302)" clip-path="url(#clip-path)">
          <g id="Group_323" data-name="Group 323" transform="translate(34.803 21.9)">
            <path id="Path_643" data-name="Path 643" d="M400.7,414.28s-39.373,47.81-21.8,100.542L355,502.166s.176-61.872,45.7-87.886" transform="translate(-295.589 -154.489)" fill="#434860"/>
            <path id="Path_644" data-name="Path 644" d="M340.656,476.484s13.058-54.56,47.328-63.454c0,0-45.724,4.079-59.984,47.986Z" transform="translate(-287.573 -154.118)" fill="#434860"/>
            <path id="Path_645" data-name="Path 645" d="M375.378,409.229s-43.369,9.881-56.1,34.685L315,423.829S343.275,404.775,375.378,409.229Z" transform="translate(-283.713 -152.789)" fill="#434860"/>
            <path id="Path_646" data-name="Path 646" d="M328.5,59.193,360.49,44.78S340.8,120.362,407.6,163.25l-4.922,8.437S333.07,148.134,328.5,59.193Z" transform="translate(-287.721 -44.78)" fill="#434860"/>
            <path id="Path_647" data-name="Path 647" d="M429.609,213.28s-22.969,40.546-18.282,73.357c0,0,0,32.341,38.435,31.873,0,0,36.445-2.931,50.622,16.406a23.727,23.727,0,0,1,3.75,17.342s-2.813-13.125-10.781-11.249c0,0,4.688,10.781.938,15.468,0,0,.47.937,3.75-4.687,0,0,9.61,15.115-4.1,25.31,0,0-16.874-42.888-62.459-11.247,0,0,32.811.468,21.562,31.873,0,0,.937-12.656-4.219-12.656,0,0,2.812,7.032-11.718,11.718,0,0,12.656-11.249.938-20.155,0,0-25.311-3.281-31.4,13.124,0,0-1.874-34.217,44.06-42.654,0,0-12.187-1.406-13.125-11.249,0,0,19.218,6.562,25.78-5.625,0,0-52.028,3.751-59.059-43.122,0,0-7.5-42.654,9.374-71.714" transform="translate(-309.733 -94.81)" fill="#434860"/>
            <path id="Path_648" data-name="Path 648" d="M469.333,435.469s6.093,3.75,4.922,7.266c0,0,7.5-1.172,10.312,3.046C484.567,445.781,483.16,432.891,469.333,435.469Z" transform="translate(-329.536 -160.679)" fill="#434860"/>
            <g id="Group_322" data-name="Group 322" transform="translate(0 42.185)">
              <path id="Path_649" data-name="Path 649" d="M386,370.51l1.048,18.983s14.518-10.55,17.99-28.465q-1.887-2.036-3.518-4.169C400.165,360.42,396.272,367.433,386,370.51Z" transform="translate(-304.794 -179.625)" fill="#434860"/>
              <path id="Path_650" data-name="Path 650" d="M405.862,384.165l4.415,15.637s10.051-11.411,9.7-26.9c-1.3-.942-2.551-1.9-3.73-2.9C415.746,373.268,413.755,379.739,405.862,384.165Z" transform="translate(-310.691 -183.528)" fill="#434860"/>
              <path id="Path_651" data-name="Path 651" d="M355.664,350.551,352.5,369.183s25.188-5.421,34.876-23.853a58.128,58.128,0,0,1-2.96-5.978C380.144,343.3,368.874,352.2,355.664,350.551Z" transform="translate(-294.847 -174.427)" fill="#434860"/>
              <path id="Path_652" data-name="Path 652" d="M331.476,320.082,325.5,340.12s28.585.321,47.661-17.765a71.92,71.92,0,0,1-1.42-7.477C365.757,318.367,352.425,323.823,331.476,320.082Z" transform="translate(-286.83 -167.161)" fill="#434860"/>
              <path id="Path_653" data-name="Path 653" d="M361.4,288.27c-29.817,11.1-58-3.99-58-3.99l-10.9,17.929c35.516,9.788,60.129-1.558,68.712-6.608C361.18,293.137,361.247,290.689,361.4,288.27Z" transform="translate(-277.032 -158.076)" fill="#434860"/>
              <path id="Path_654" data-name="Path 654" d="M286.71,234.28,273,250.8c40.553,24.672,72.864,15.945,83.843,11.649.372-2.314.8-4.574,1.272-6.764C315.062,267.29,286.71,234.28,286.71,234.28Z" transform="translate(-271.242 -143.23)" fill="#434860"/>
              <path id="Path_655" data-name="Path 655" d="M288.429,168.28,270.5,185.857s16.2,39.609,89.159,41.091c.552-1.937,1.118-3.782,1.684-5.521C350.2,219.962,307.026,211.572,288.429,168.28Z" transform="translate(-270.5 -123.634)" fill="#434860"/>
              <path id="Path_656" data-name="Path 656" d="M312.46,104.78,287.5,120.248s14.936,58.659,82.045,73.54c1.155-2.93,2.136-5.145,2.739-6.45C361.378,181.231,310.576,150.294,312.46,104.78Z" transform="translate(-275.548 -104.78)" fill="#434860"/>
            </g>
            <path id="Path_657" data-name="Path 657" d="M471.375,279.974s91.453-78.915,54.576-180.694l-24.338,20.651S547.341,182.621,464,279.974Z" transform="translate(-327.953 -60.962)" fill="#434860"/>
            <path id="Path_658" data-name="Path 658" d="M466.055,321.483s1.414-19.193-7.216-24.755l13.385-15.7S480.612,299.318,466.055,321.483Z" transform="translate(-326.42 -114.924)" fill="#434860"/>
            <path id="Path_659" data-name="Path 659" d="M453.13,344.658s-.1-14.162-5.611-17.414l7.951-10.107A31.084,31.084,0,0,1,453.13,344.658Z" transform="translate(-323.059 -125.646)" fill="#434860"/>
            <path id="Path_660" data-name="Path 660" d="M471.873,247.318s17.228,11.022,10.571,42.319c0,0,19.033-29.366,7-56.752Z" transform="translate(-330.29 -100.63)" fill="#434860"/>
            <path id="Path_661" data-name="Path 661" d="M485.5,184.592s23.467,9.233,16.927,64.246c0,0,22.313-50.4.385-81.558Z" transform="translate(-334.336 -81.152)" fill="#434860"/>
          </g>
        </g>
        <path id="Path_663" data-name="Path 663" d="M1529.693,13801.895s5.855-.452,8.952,11.7c.722.168,8.733-10.229,5.685-23.722C1544.619,13790.138,1529.693,13801.895,1529.693,13801.895Z" transform="matrix(0.891, 0.454, -0.454, 0.891, 5313.33, -12395.033)" fill="#434860"/>
      </g>
    </g>
  </g>
</svg>
