<?xml version="1.0" standalone="no"?>
<!DOCTYPE svg PUBLIC "-//W3C//DTD SVG 20010904//EN"
 "http://www.w3.org/TR/2001/REC-SVG-20010904/DTD/svg10.dtd">
<svg version="1.0" xmlns="http://www.w3.org/2000/svg"
 width="459.000000pt" height="459.000000pt" viewBox="0 0 459.000000 459.000000"
 preserveAspectRatio="xMidYMid meet">
<metadata>
Created by potrace 1.14, written by Peter Selinger 2001-2017
</metadata>
<g transform="translate(0.000000,459.000000) scale(0.100000,-0.100000)"
fill="#000000" stroke="none">
<path d="M1675 4250 c-58 -27 -162 -74 -222 -100 l-52 -22 5 -61 c5 -71 11
-107 29 -192 18 -85 66 -223 111 -320 2 -6 -18 -20 -46 -32 l-51 -22 -24 52
c-41 91 -59 171 -64 284 -1 6 -57 -23 -125 -65 l-123 -76 17 -51 c21 -61 69
-156 105 -209 28 -41 28 -41 -18 -67 -20 -12 -20 -12 -34 14 -9 17 -20 9 -101
-69 -67 -63 -89 -90 -82 -99 7 -9 -2 -25 -32 -57 -58 -61 -100 -109 -118 -134
-158 -223 -233 -372 -288 -575 -63 -228 -75 -489 -33 -729 36 -212 145 -474
266 -643 105 -147 258 -301 395 -400 110 -78 319 -185 435 -222 99 -32 237
-62 341 -74 85 -9 324 -7 389 4 22 3 51 8 64 10 332 55 638 213 881 456 269
268 433 609 477 989 23 210 -8 487 -78 694 -44 128 -145 338 -189 391 -14 17
-12 18 152 146 l103 80 27 -32 c15 -18 29 -31 31 -28 10 13 108 262 104 265
-3 3 -33 0 -68 -5 -35 -5 -86 -13 -114 -16 -27 -3 -59 -8 -70 -10 -11 -2 -24
-4 -29 -4 -4 -1 3 -16 18 -35 14 -19 26 -39 26 -43 0 -5 -58 -55 -129 -110
l-128 -101 -49 56 c-78 90 -210 209 -302 274 -17 11 -20 30 -25 118 -8 139
-65 400 -87 400 -3 0 -42 -30 -86 -67 -44 -38 -96 -81 -116 -98 l-36 -30 25
-49 c14 -27 31 -67 39 -88 l13 -38 -27 14 c-54 28 -219 79 -322 101 -142 29
-399 37 -530 16 -41 -7 -84 -14 -95 -16 -11 -2 -32 -6 -46 -10 -25 -6 -28 -3
-42 42 -53 162 -68 442 -31 588 3 14 5 25 3 24 -2 0 -22 -9 -44 -19z"/>
</g>
</svg>
